<svg width="512" height="438" viewBox="0 0 512 438" fill="none" xmlns="http://www.w3.org/2000/svg">
<path d="M244 41.8478L255.1 53.8478L267.1 41.8678C300.6 9.21777 347 -5.64223 392.6 1.94777C461.5 13.4278 512 73.0478 512 142.948V148.748C512 190.248 494.8 229.948 464.4 258.248L283.7 426.948C276.2 433.948 266.3 437.848 256 437.848C245.7 437.848 235.8 433.948 228.3 426.948L47.59 258.248C17.23 229.948 0 190.248 0 148.748V142.948C0 73.0478 50.52 13.4278 119.4 1.94777C164.1 -5.64223 211.4 9.21777 244 41.8478C244 41.8578 243.1 41.8478 244 41.8478ZM255.1 121.748L210.1 74.9478C188.4 54.1278 157.6 44.2478 127.3 49.2878C81.55 56.9178 48 96.5478 48 142.948V148.748C48 176.948 59.71 203.948 80.34 223.148L256 387.148L431.7 223.148C452.3 203.948 464 176.948 464 148.748V142.948C464 96.5478 430.4 56.9178 384.7 49.2878C354.4 44.2478 323.6 54.1278 301.9 74.9478L255.1 121.748Z" fill="#503DD4"/>
</svg>
