<svg width="529" height="512" viewBox="0 0 529 512" fill="none" xmlns="http://www.w3.org/2000/svg">
<path d="M357.2 150.3L500.9 171.5C512.8 173.2 522.8 181.6 526.6 193.1C530.4 204.7 527.3 217.3 518.7 225.9L414.5 328.1L439.1 474.7C441.1 486.7 436.2 498.9 426.2 506C416.3 513.1 403.2 514 392.5 508.3L264.1 439.8L135.8 508.3C125 514 111.9 513.1 102 506C92.1 498.9 87.1 486.7 89.2 474.7L113.8 328.1L9.58002 225.9C0.97002 217.3 -2.08998 204.7 1.69002 193.1C5.46002 181.6 15.43 173.2 27.42 171.5L171 150.3L235.4 17.97C240.7 6.95401 251.9 -0.039093 264.1 -0.039093C276.4 -0.039093 287.6 6.95401 292.9 17.97L357.2 150.3Z" fill="#FCE303"/>
</svg>
